# xmcd
#
# Track frame offsets:
#	150
#	24822
#	44925
#	69550
#	87565
#	103225
#	116147
#	136215
#	148907
#	159772
#	173335
#	185220
#	195202
#	208647
#	220855
#	233430
#	245509
#	259450
#	270087
#
# Disc length: 3826
#
# Revision: 3
# Processed by: cddbd v1.5.1PL0 Copyright (c) Steve Scherf et al.
# Submitted via: CDex 1.50
# Normalized: r2:TDELIM( - )
#
DISCID=110ef013
DTITLE=Cuba. Por La Musica, Siempre - CD2
DYEAR=1998
DGENRE=Latin
TTITLE0=Mario Bauza And His Afro-Cuban Orchestra - Son Cubano
TTITLE1=Soledad Bravo - Hasta Siempre
TTITLE2=Revé Y Su Charangon - Changui Clave
TTITLE3=Celina Gonzales - Yo Soy El Punto Cubano
TTITLE4=Celina Gonzales - Santa Barbara
TTITLE5=Irakere - Catalina
TTITLE6=Lazaro Ros and Olorun - Cantos Lyesa
TTITLE7=Los Cubaztecas - Me Gusta La Rumba
TTITLE8=Pancho Cantaneo y los Cubaztecas - Cabeça Hinchada
TTITLE9=Tropical Orchestra - Salsa Mania
TTITLE10=Pancho Cantaneo y los Cubaztecas - Moliendo Cafe
TTITLE11=Orquesta Hector Grané - La Bamba
TTITLE12=Beny Moré - Dolor Y Pena
TTITLE13=Beny Moré - Caricias Cubanas
TTITLE14=Beny Moré - Marianao
TTITLE15=Celia Cruz - Mi Soncito
TTITLE16=Celia Cruz - Me Voy Pa' El Pueblo
TTITLE17=Celia Cruz - Pila Pilandera
TTITLE18=Arturo Chaite Y Su Orquesta - Siboney
EXTD=YEAR: 1998
EXTT0=
EXTT1=
EXTT2=
EXTT3=
EXTT4=
EXTT5=
EXTT6=
EXTT7=
EXTT8=
EXTT9=
EXTT10=
EXTT11=
EXTT12=
EXTT13=
EXTT14=
EXTT15=
EXTT16=
EXTT17=
EXTT18=
PLAYORDER=
